<mxfile host="app.diagrams.net" modified="2022-10-13T06:18:33.261Z" agent="5.0 (Windows NT 10.0; Win64; x64) AppleWebKit/537.36 (KHTML, like Gecko) Chrome/106.0.0.0 Safari/537.36 Edg/106.0.1370.37" etag="NCu9LnMldIWBtxnKJa4X" version="20.4.0" type="github">
  <diagram id="cnUDhgeKzl4A0cAz_mpN" name="第 1 页">
    <mxGraphModel dx="1639" dy="464" grid="1" gridSize="10" guides="1" tooltips="1" connect="1" arrows="1" fold="1" page="1" pageScale="1" pageWidth="827" pageHeight="1169" math="0" shadow="0">
      <root>
        <mxCell id="0" />
        <mxCell id="1" parent="0" />
        <mxCell id="7I4H-0d6mpGbWhz9QqX5-2" value="" style="rounded=0;whiteSpace=wrap;html=1;" vertex="1" parent="1">
          <mxGeometry x="-470" y="50" width="1210" height="870" as="geometry" />
        </mxCell>
        <mxCell id="7I4H-0d6mpGbWhz9QqX5-3" value="" style="rounded=0;whiteSpace=wrap;html=1;" vertex="1" parent="1">
          <mxGeometry x="-470" y="50" width="1210" height="190" as="geometry" />
        </mxCell>
        <mxCell id="7I4H-0d6mpGbWhz9QqX5-4" value="" style="rounded=0;whiteSpace=wrap;html=1;" vertex="1" parent="1">
          <mxGeometry x="-470" y="920" width="1210" height="30" as="geometry" />
        </mxCell>
        <mxCell id="7I4H-0d6mpGbWhz9QqX5-6" value="" style="rounded=0;whiteSpace=wrap;html=1;" vertex="1" parent="1">
          <mxGeometry x="-470" y="240" width="350" height="680" as="geometry" />
        </mxCell>
        <mxCell id="7I4H-0d6mpGbWhz9QqX5-7" value="" style="rounded=0;whiteSpace=wrap;html=1;" vertex="1" parent="1">
          <mxGeometry x="390" y="240" width="350" height="680" as="geometry" />
        </mxCell>
        <mxCell id="7I4H-0d6mpGbWhz9QqX5-8" value="" style="rounded=0;whiteSpace=wrap;html=1;" vertex="1" parent="1">
          <mxGeometry x="-470" y="50" width="1210" height="30" as="geometry" />
        </mxCell>
        <mxCell id="7I4H-0d6mpGbWhz9QqX5-9" value="文件" style="text;html=1;strokeColor=none;fillColor=none;align=center;verticalAlign=middle;whiteSpace=wrap;rounded=0;" vertex="1" parent="1">
          <mxGeometry x="-470" y="50" width="60" height="30" as="geometry" />
        </mxCell>
        <mxCell id="7I4H-0d6mpGbWhz9QqX5-10" value="编辑" style="text;html=1;strokeColor=none;fillColor=none;align=center;verticalAlign=middle;whiteSpace=wrap;rounded=0;" vertex="1" parent="1">
          <mxGeometry x="-410" y="50" width="60" height="30" as="geometry" />
        </mxCell>
        <mxCell id="7I4H-0d6mpGbWhz9QqX5-11" value="选项" style="text;html=1;strokeColor=none;fillColor=none;align=center;verticalAlign=middle;whiteSpace=wrap;rounded=0;" vertex="1" parent="1">
          <mxGeometry x="-350" y="50" width="60" height="30" as="geometry" />
        </mxCell>
        <mxCell id="7I4H-0d6mpGbWhz9QqX5-12" value="账户" style="text;html=1;strokeColor=none;fillColor=none;align=center;verticalAlign=middle;whiteSpace=wrap;rounded=0;" vertex="1" parent="1">
          <mxGeometry x="-290" y="50" width="60" height="30" as="geometry" />
        </mxCell>
        <mxCell id="7I4H-0d6mpGbWhz9QqX5-13" value="新建" style="rounded=0;whiteSpace=wrap;html=1;" vertex="1" parent="1">
          <mxGeometry x="-440" y="110" width="50" height="50" as="geometry" />
        </mxCell>
        <mxCell id="7I4H-0d6mpGbWhz9QqX5-14" value="储存" style="rounded=0;whiteSpace=wrap;html=1;" vertex="1" parent="1">
          <mxGeometry x="-380" y="110" width="50" height="50" as="geometry" />
        </mxCell>
        <mxCell id="7I4H-0d6mpGbWhz9QqX5-15" value="另存为" style="rounded=0;whiteSpace=wrap;html=1;" vertex="1" parent="1">
          <mxGeometry x="-380" y="170" width="50" height="50" as="geometry" />
        </mxCell>
        <mxCell id="7I4H-0d6mpGbWhz9QqX5-16" value="新建" style="rounded=0;whiteSpace=wrap;html=1;" vertex="1" parent="1">
          <mxGeometry x="-440" y="170" width="50" height="50" as="geometry" />
        </mxCell>
        <mxCell id="7I4H-0d6mpGbWhz9QqX5-20" value="" style="line;strokeWidth=2;direction=south;html=1;" vertex="1" parent="1">
          <mxGeometry x="-300" y="90" width="10" height="140" as="geometry" />
        </mxCell>
        <mxCell id="7I4H-0d6mpGbWhz9QqX5-21" value="储存" style="rounded=0;whiteSpace=wrap;html=1;" vertex="1" parent="1">
          <mxGeometry x="-270" y="115" width="90" height="90" as="geometry" />
        </mxCell>
        <mxCell id="7I4H-0d6mpGbWhz9QqX5-22" value="储存" style="rounded=0;whiteSpace=wrap;html=1;" vertex="1" parent="1">
          <mxGeometry x="-160" y="115" width="90" height="90" as="geometry" />
        </mxCell>
        <mxCell id="7I4H-0d6mpGbWhz9QqX5-23" value="储存" style="rounded=0;whiteSpace=wrap;html=1;" vertex="1" parent="1">
          <mxGeometry x="-50" y="115" width="90" height="90" as="geometry" />
        </mxCell>
        <mxCell id="7I4H-0d6mpGbWhz9QqX5-24" value="数据库" style="rounded=0;whiteSpace=wrap;html=1;" vertex="1" parent="1">
          <mxGeometry x="70" y="115" width="150" height="35" as="geometry" />
        </mxCell>
        <mxCell id="7I4H-0d6mpGbWhz9QqX5-25" value="" style="verticalLabelPosition=bottom;verticalAlign=top;html=1;shape=mxgraph.basic.acute_triangle;dx=0.5;rotation=-180;fillColor=#000000;" vertex="1" parent="1">
          <mxGeometry x="190" y="126.95" width="20" height="11.11" as="geometry" />
        </mxCell>
      </root>
    </mxGraphModel>
  </diagram>
</mxfile>
